<svg width="33" height="30" viewBox="0 0 33 30" fill="none" xmlns="http://www.w3.org/2000/svg">
<path d="M17.0398 23.4736C16.5098 24.3458 15.991 25.1738 15.4831 26.0128C14.8759 27.0175 14.2687 28.0111 13.6505 29.0157C13.1537 29.8327 12.403 30.1528 11.586 29.932C10.7138 29.6891 10.2502 29.0378 10.2502 28.0331C10.2502 26.0791 10.2612 24.1139 10.2391 22.1599C10.2281 21.4643 10.4599 20.9123 10.9678 20.4376C15.5494 16.0768 20.1089 11.716 24.6905 7.3552C24.823 7.22271 24.9996 7.1344 25.1431 7.03504C24.8671 6.58239 24.6795 6.80319 24.5028 6.93567C22.8358 8.09488 21.1687 9.25408 19.5127 10.4022C15.6708 13.0739 11.8399 15.7346 7.99799 18.4173C7.76615 18.5829 7.60055 18.605 7.33559 18.4725C5.60231 17.5672 3.86903 16.6619 2.1247 15.7787C1.39606 15.4034 0.954461 14.8514 0.987581 14.0123C1.0207 13.1954 1.49542 12.6875 2.22406 12.3674C11.5198 8.32672 20.7934 4.27503 30.078 0.223345C30.8177 -0.0968156 31.5022 -0.107856 32.1315 0.422065C32.7608 0.951986 32.8712 1.63647 32.6835 2.40927C30.7735 10.2587 28.8747 18.0971 26.9758 25.9466C26.6556 27.2603 25.4633 27.8123 24.2599 27.1831C22.0078 26.0239 19.7556 24.8536 17.5034 23.6944C17.3599 23.6282 17.2274 23.5619 17.0398 23.4736Z" fill="white"/>
</svg>
