<svg width="48" height="48" viewBox="0 0 48 48" fill="none" xmlns="http://www.w3.org/2000/svg">
<path fill-rule="evenodd" clip-rule="evenodd" d="M48 24C48 37.2548 37.2548 48 24 48C10.7452 48 0 37.2548 0 24C0 10.7452 10.7452 0 24 0C37.2548 0 48 10.7452 48 24ZM16.0715 20.1925C13.6673 21.2422 11.1971 22.3208 8.93825 23.565L8.93809 23.5651C7.75861 24.4287 9.32638 25.0395 10.7971 25.6125C11.0309 25.7036 11.2622 25.7937 11.4797 25.8837C11.6607 25.9394 11.8447 25.998 12.0312 26.0574C13.6669 26.5785 15.4907 27.1596 17.0787 26.2855C19.6873 24.787 22.149 23.0546 24.6089 21.3235C25.4148 20.7563 26.2205 20.1893 27.0311 19.6307C27.0691 19.6064 27.1119 19.5786 27.1588 19.5482C27.8493 19.1006 29.4024 18.0939 28.8279 19.4811C27.4695 20.9666 26.0144 22.2817 24.5515 23.604C23.5655 24.4951 22.5759 25.3894 21.6099 26.3415C20.7686 27.0251 19.8949 28.3998 20.837 29.3571C23.0069 30.8761 25.2107 32.3583 27.4132 33.8397C28.1299 34.3217 28.8466 34.8037 29.5618 35.2868C30.774 36.2547 32.6685 35.4718 32.935 33.9595C33.0535 33.2638 33.1725 32.5682 33.2915 31.8725C33.9491 28.0278 34.6069 24.1817 35.188 20.3245C35.267 19.7194 35.3565 19.1144 35.4461 18.5091C35.6632 17.042 35.8806 15.5731 35.9485 14.0981C35.7735 12.6261 33.9887 12.9498 32.9955 13.2807C27.8903 15.2233 22.8361 17.3099 17.8019 19.4333C17.2316 19.686 16.6535 19.9384 16.0715 20.1925Z" fill="white"/>
</svg>
