<svg width="48" height="48" viewBox="0 0 48 48" fill="none" xmlns="http://www.w3.org/2000/svg">
<path fill-rule="evenodd" clip-rule="evenodd" d="M24 0C10.7452 0 0 10.7452 0 24C0 37.2548 10.7452 48 24 48C37.2548 48 48 37.2548 48 24C48 10.7452 37.2548 0 24 0ZM17.562 35.5624C18.2654 35.8482 19.0199 35.9969 19.7825 36L29.49 35.94C30.2168 35.9369 30.9359 35.795 31.6061 35.5225C32.2764 35.25 32.8847 34.8523 33.3964 34.352C33.908 33.8516 34.313 33.2585 34.5881 32.6065C34.8633 31.9545 35.0032 31.2564 34.9999 30.552V20.952C34.9967 20.8109 34.9366 20.6766 34.8324 20.5779C34.7283 20.4792 34.5884 20.424 34.4428 20.424H30.7282C30.1883 20.4209 29.6544 20.3147 29.1569 20.1116C28.6594 19.9084 28.208 19.6123 27.8286 19.2402C27.4492 18.868 27.1491 18.427 26.9455 17.9424C26.7419 17.4579 26.6388 16.9392 26.6421 16.416V12.552C26.6389 12.4066 26.5779 12.2679 26.4718 12.1651C26.3656 12.0622 26.2226 12.0031 26.0725 12H19.5348C18.0614 12.0095 16.6518 12.5843 15.6145 13.5985C14.5772 14.6128 13.9967 15.984 14.0001 17.412V30.348C13.9968 31.0871 14.1438 31.8195 14.4326 32.5036C14.7214 33.1876 15.1465 33.8098 15.6834 34.3346C16.2204 34.8595 16.8587 35.2767 17.562 35.5624ZM20.0614 29.0097C19.8886 28.8422 19.7887 28.6168 19.7825 28.38V28.368C19.7889 28.1324 19.8891 27.9083 20.0622 27.7427C20.2354 27.5772 20.4679 27.483 20.7111 27.48H27.3726C27.6179 27.4831 27.8523 27.5789 28.0257 27.747C28.1992 27.9152 28.2981 28.1423 28.3013 28.38C28.295 28.6168 28.1952 28.8422 28.0224 29.0097C27.8495 29.1771 27.6169 29.2739 27.3726 29.28H20.7111C20.4668 29.2739 20.2342 29.1771 20.0614 29.0097ZM20.0622 23.0053C19.8891 22.8397 19.7889 22.6156 19.7825 22.38V22.368C19.7889 22.1324 19.8891 21.9083 20.0622 21.7427C20.2354 21.5772 20.4679 21.483 20.7111 21.48H24.8467C24.9768 21.4654 25.1086 21.4776 25.2335 21.5158C25.3584 21.5541 25.4736 21.6175 25.5714 21.7019C25.6692 21.7864 25.7475 21.8899 25.8011 22.0057C25.8547 22.1215 25.8824 22.2471 25.8824 22.374C25.8824 22.5009 25.8547 22.6265 25.8011 22.7423C25.7475 22.8581 25.6692 22.9616 25.5714 23.0461C25.4736 23.1305 25.3584 23.1939 25.2335 23.2322C25.1086 23.2704 24.9768 23.2826 24.8467 23.268H20.7111C20.4679 23.265 20.2354 23.1708 20.0622 23.0053ZM29.1752 17.9571C29.6396 18.4071 30.2695 18.66 30.9263 18.66L30.9015 18.684H33.9846C34.0999 18.682 34.2121 18.6476 34.3075 18.5849C34.4029 18.5223 34.4775 18.434 34.5221 18.331C34.5667 18.228 34.5795 18.1146 34.5588 18.0047C34.5381 17.8948 34.4849 17.7931 34.4056 17.712L29.4528 12.696C29.3986 12.6371 29.3316 12.5905 29.2567 12.5594C29.1819 12.5283 29.1009 12.5135 29.0194 12.516C28.9425 12.5159 28.8664 12.531 28.7956 12.5602C28.7248 12.5894 28.6609 12.6322 28.6077 12.6861C28.5545 12.7399 28.513 12.8036 28.4859 12.8734C28.4588 12.9431 28.4465 13.0175 28.4499 13.092V16.26C28.4499 16.8965 28.7108 17.507 29.1752 17.9571Z" fill="white"/>
</svg>
