<svg width="48" height="48" viewBox="0 0 48 48" fill="none" xmlns="http://www.w3.org/2000/svg">
<path fill-rule="evenodd" clip-rule="evenodd" d="M24 0C10.7452 0 0 10.7452 0 24C0 37.2548 10.7452 48 24 48C37.2548 48 48 37.2548 48 24C48 10.7452 37.2548 0 24 0ZM24.1931 20.4946L24.1389 19.5863C23.9764 17.2321 25.4034 15.0819 27.6614 14.2477C28.4923 13.9511 29.9013 13.914 30.8226 14.1735C31.1838 14.2848 31.8703 14.6555 32.358 14.9892L33.2431 15.6009L34.2186 15.2858C34.7605 15.1189 35.483 14.8409 35.8082 14.6555C36.1153 14.4887 36.3862 14.396 36.3862 14.4516C36.3862 14.7667 35.7179 15.8419 35.1579 16.4351C34.3992 17.2692 34.616 17.3434 36.1514 16.7873C37.0727 16.4721 37.0907 16.4721 36.9101 16.8243C36.8017 17.0097 36.2417 17.6585 35.6456 18.2517C34.634 19.2712 34.5798 19.3824 34.5798 20.2351C34.5798 21.5512 33.9657 24.2947 33.3515 25.7962C32.2135 28.6138 29.7749 31.5241 27.3362 32.9885C23.9041 35.0461 19.3339 35.5652 15.4863 34.3603C14.2038 33.9524 12 32.9144 12 32.729C12 32.6734 12.6684 32.5992 13.4812 32.5807C15.1792 32.5436 16.8772 32.0617 18.3224 31.209L19.2978 30.6158L18.1778 30.2265C16.5882 29.6704 15.1612 28.3914 14.7999 27.1865C14.6915 26.7972 14.7276 26.7787 15.7392 26.7787L16.7869 26.7601L15.9018 26.3338C14.8541 25.7962 13.8967 24.8879 13.427 23.961C13.0838 23.2937 12.6503 21.6069 12.7767 21.4771C12.8129 21.4215 13.1922 21.5327 13.6257 21.681C14.8722 22.1444 15.0347 22.0332 14.3122 21.2547C12.9574 19.8458 12.5419 17.7512 13.1922 15.7677L13.4993 14.878L14.6915 16.0828C17.1301 18.5112 20.0023 19.9571 23.2899 20.3834L24.1931 20.4946Z" fill="white"/>
</svg>
