<svg width="38" height="30" viewBox="0 0 38 30" fill="none" xmlns="http://www.w3.org/2000/svg">
<path d="M37.9869 3.51883C36.5359 4.06296 35.0849 4.6071 33.6339 4.78848C35.2663 3.88159 36.3545 2.43056 36.8987 0.616786C35.4476 1.52368 33.8152 2.06781 32.0015 2.43056C29.0994 -0.65286 24.3836 -0.834237 21.3002 2.06781C19.305 3.88159 18.3981 6.78363 19.1236 9.32292C13.1382 8.96017 7.33406 6.05812 3.52513 1.3423C2.79962 2.43056 2.61824 3.70021 2.61824 5.15123C2.61824 7.69052 3.88789 10.0484 6.06442 11.4995C4.6134 11.3181 3.52513 11.1367 2.43686 10.4112V10.5926C2.43686 14.2201 4.97615 17.3035 8.60371 18.0291C7.51544 18.3918 6.2458 18.3918 5.15753 18.2104C6.06442 21.2939 8.96647 23.4704 12.2313 23.4704C8.96647 26.0097 4.97615 27.098 0.98584 26.5538C4.43202 28.7304 8.42233 30 12.594 30C26.5601 30 34.178 18.3918 34.178 8.41603C34.178 8.05328 34.178 7.69052 34.178 7.50914C35.629 6.2395 36.8987 4.96985 37.9869 3.51883Z" fill="white"/>
</svg>
